<?xml version="1.0" encoding="UTF-8" standalone="no"?>
<!-- Created with Inkscape (http://www.inkscape.org/) -->

<svg
   width="264.54541"
   height="50"
   viewBox="0 0 69.994304 13.229166"
   version="1.1"
   id="svg5"
   inkscape:version="1.1 (c4e8f9e, 2021-05-24)"
   sodipodi:docname="banner.svg"
   inkscape:export-filename="/Users/lemonorange/websites/betterPointer/docs/assets/img/ras/banner.png"
   inkscape:export-xdpi="371.59595"
   inkscape:export-ydpi="371.59595"
   xmlns:inkscape="http://www.inkscape.org/namespaces/inkscape"
   xmlns:sodipodi="http://sodipodi.sourceforge.net/DTD/sodipodi-0.dtd"
   xmlns="http://www.w3.org/2000/svg"
   xmlns:svg="http://www.w3.org/2000/svg">
  <sodipodi:namedview
     id="namedview7"
     pagecolor="#505050"
     bordercolor="#ffffff"
     borderopacity="1"
     inkscape:pageshadow="0"
     inkscape:pageopacity="0"
     inkscape:pagecheckerboard="1"
     inkscape:document-units="mm"
     showgrid="false"
     inkscape:zoom="2.3779411"
     inkscape:cx="130.99568"
     inkscape:cy="37.637602"
     inkscape:window-width="1440"
     inkscape:window-height="788"
     inkscape:window-x="0"
     inkscape:window-y="25"
     inkscape:window-maximized="1"
     inkscape:current-layer="layer1"
     inkscape:snap-global="false"
     fit-margin-top="0"
     fit-margin-left="0"
     fit-margin-right="0"
     fit-margin-bottom="0"
     units="px"
     width="250px" />
  <defs
     id="defs2" />
  <g
     inkscape:label="text"
     inkscape:groupmode="layer"
     id="layer1"
     transform="translate(-74.513821,-144.49061)">
    <g
       id="g30615"
       transform="translate(0,5.21761)">
      <g
         id="g21306"
         transform="translate(5.3736422,3.6413067)"
         style="fill:#999999">
        <path
           d="m 69.140179,148.73386 v -7.88456 h 3.323156 q 0.783164,0 1.333496,0.27516 0.560915,0.26459 0.857247,0.762 0.306916,0.48683 0.306916,1.18533 0,0.53975 -0.296333,1.016 -0.285749,0.46566 -0.920747,0.77258 v -0.66675 q 0.582082,0.22225 0.920747,0.55033 0.338666,0.32808 0.476249,0.73025 0.137583,0.40217 0.137583,0.84666 0,1.13242 -0.751414,1.778 -0.740831,0.635 -2.063744,0.635 z m 1.439329,-1.27 h 2.031993 q 0.560915,0 0.888997,-0.30692 0.338666,-0.31749 0.338666,-0.83608 0,-0.51858 -0.338666,-0.83608 -0.328082,-0.3175 -0.888997,-0.3175 h -2.031993 z m 0,-3.55599 h 1.95791 q 0.444499,0 0.709081,-0.254 0.264583,-0.26458 0.264583,-0.67733 0,-0.41275 -0.264583,-0.65616 -0.264582,-0.24342 -0.709081,-0.24342 h -1.95791 z"
           style="font-size:10.5833px;line-height:1.25;fill:#999999;stroke-width:0.264583"
           id="path21242" />
        <path
           d="m 79.071613,148.86086 q -0.888997,0 -1.555745,-0.40217 -0.666747,-0.40216 -1.037163,-1.09008 -0.370415,-0.68791 -0.370415,-1.52399 0,-0.86784 0.370415,-1.53458 0.380999,-0.67733 1.02658,-1.06892 0.656165,-0.39158 1.460495,-0.39158 0.677332,0 1.18533,0.22225 0.518582,0.22225 0.878414,0.61383 0.359832,0.39158 0.550332,0.89958 0.190499,0.49742 0.190499,1.0795 0,0.14817 -0.02117,0.30691 -0.01058,0.15875 -0.05292,0.27517 h -4.444986 v -1.05833 h 3.661822 l -0.656165,0.49742 q 0.09525,-0.48684 -0.05292,-0.86783 -0.137583,-0.381 -0.465666,-0.60325 -0.317499,-0.22225 -0.772581,-0.22225 -0.433915,0 -0.77258,0.22225 -0.338666,0.21166 -0.518582,0.635 -0.169333,0.41274 -0.127,1.00541 -0.04233,0.52916 0.137583,0.94191 0.1905,0.40217 0.550332,0.62442 0.370415,0.22225 0.846664,0.22225 0.476248,0 0.804331,-0.20109 0.338665,-0.20108 0.529165,-0.53974 l 1.121829,0.55033 q -0.169332,0.41275 -0.529165,0.73024 -0.359832,0.3175 -0.857247,0.49742 -0.486832,0.17992 -1.079497,0.17992 z"
           style="font-size:10.5833px;line-height:1.25;fill:#999999;stroke-width:0.264583"
           id="path21244" />
        <path
           d="m 85.435649,148.79736 q -0.973664,0 -1.513412,-0.52917 -0.529165,-0.53975 -0.529165,-1.51341 v -2.53999 h -0.99483 v -1.23825 h 0.105833 q 0.423332,0 0.656164,-0.22225 0.232833,-0.22225 0.232833,-0.64558 v -0.4445 h 1.386412 v 1.31233 h 1.322913 v 1.23825 h -1.322913 v 2.46591 q 0,0.28575 0.09525,0.48683 0.105833,0.20108 0.317499,0.30691 0.222249,0.10584 0.560915,0.10584 0.07408,0 0.169332,-0.0106 0.105833,-0.0106 0.201083,-0.0212 v 1.18533 q -0.148166,0.0212 -0.338665,0.0423 -0.1905,0.0212 -0.349249,0.0212 z"
           style="font-size:10.5833px;line-height:1.25;fill:#999999;stroke-width:0.264583"
           id="path21246" />
        <path
           d="m 89.797126,148.79736 q -0.973664,0 -1.513412,-0.52917 -0.529165,-0.53975 -0.529165,-1.51341 v -2.53999 h -0.99483 v -1.23825 h 0.105833 q 0.423332,0 0.656164,-0.22225 0.232833,-0.22225 0.232833,-0.64558 v -0.4445 h 1.386412 v 1.31233 h 1.322912 v 1.23825 h -1.322912 v 2.46591 q 0,0.28575 0.09525,0.48683 0.105833,0.20108 0.317499,0.30691 0.222249,0.10584 0.560915,0.10584 0.07408,0 0.169332,-0.0106 0.105833,-0.0106 0.201083,-0.0212 v 1.18533 q -0.148166,0.0212 -0.338666,0.0423 -0.190499,0.0212 -0.349248,0.0212 z"
           style="font-size:10.5833px;line-height:1.25;fill:#999999;stroke-width:0.264583"
           id="path21248" />
        <path
           d="m 94.05773,148.86086 q -0.888997,0 -1.555745,-0.40217 -0.666748,-0.40216 -1.037163,-1.09008 -0.370416,-0.68791 -0.370416,-1.52399 0,-0.86784 0.370416,-1.53458 0.380999,-0.67733 1.02658,-1.06892 0.656165,-0.39158 1.460495,-0.39158 0.677332,0 1.18533,0.22225 0.518582,0.22225 0.878414,0.61383 0.359832,0.39158 0.550331,0.89958 0.1905,0.49742 0.1905,1.0795 0,0.14817 -0.02117,0.30691 -0.01058,0.15875 -0.05292,0.27517 h -4.444986 v -1.05833 h 3.661822 l -0.656165,0.49742 q 0.09525,-0.48684 -0.05292,-0.86783 -0.137582,-0.381 -0.465665,-0.60325 -0.317499,-0.22225 -0.772581,-0.22225 -0.433915,0 -0.77258,0.22225 -0.338666,0.21166 -0.518582,0.635 -0.169333,0.41274 -0.127,1.00541 -0.04233,0.52916 0.137583,0.94191 0.1905,0.40217 0.550332,0.62442 0.370415,0.22225 0.846664,0.22225 0.476248,0 0.80433,-0.20109 0.338666,-0.20108 0.529165,-0.53974 l 1.12183,0.55033 q -0.169333,0.41275 -0.529165,0.73024 -0.359832,0.3175 -0.857247,0.49742 -0.486832,0.17992 -1.079497,0.17992 z"
           style="font-size:10.5833px;line-height:1.25;fill:#999999;stroke-width:0.264583"
           id="path21250" />
        <path
           d="m 97.797109,148.73386 v -5.75732 h 1.301746 v 1.28058 l -0.105833,-0.1905 q 0.201082,-0.64558 0.624414,-0.89958 0.433914,-0.254 1.037164,-0.254 h 0.33867 v 1.22766 h -0.49742 q -0.592665,0 -0.952497,0.37042 -0.359832,0.35983 -0.359832,1.016 v 3.20674 z"
           style="font-size:10.5833px;line-height:1.25;fill:#999999;stroke-width:0.264583"
           id="path21252" />
      </g>
      <g
         id="g21315"
         transform="translate(6.4319755,3.6413066)">
        <path
           d="m 101.86159,148.73386 v -7.88456 h 2.94216 q 0.80433,0 1.41816,0.29633 0.62442,0.28575 0.97366,0.84666 0.34925,0.55034 0.34925,1.34408 0,0.78317 -0.35983,1.34408 -0.34925,0.55033 -0.96308,0.84667 -0.61383,0.29633 -1.41816,0.29633 h -1.50283 v 2.91041 z m 1.43933,-4.18041 h 1.524 q 0.39158,0 0.67733,-0.14816 0.28575,-0.15875 0.4445,-0.43392 0.15874,-0.27516 0.15874,-0.635 0,-0.37041 -0.15874,-0.63499 -0.15875,-0.27517 -0.4445,-0.42334 -0.28575,-0.15875 -0.67733,-0.15875 h -1.524 z"
           style="font-weight:bold;font-size:10.5833px;line-height:1.25;font-family:'Plus Jakarta Sans';-inkscape-font-specification:'Plus Jakarta Sans';fill:#f87810;stroke-width:0.264583"
           id="path21254" />
        <path
           d="m 111.21624,148.86086 q -0.84667,0 -1.54517,-0.39159 -0.68791,-0.39158 -1.10066,-1.06891 -0.40216,-0.67733 -0.40216,-1.54516 0,-0.86783 0.40216,-1.54516 0.41275,-0.67733 1.10066,-1.06892 0.68792,-0.39158 1.54517,-0.39158 0.84666,0 1.53457,0.39158 0.68792,0.39159 1.09008,1.06892 0.41275,0.66674 0.41275,1.54516 0,0.86783 -0.41275,1.54516 -0.41274,0.67733 -1.10066,1.06891 -0.68791,0.39159 -1.52399,0.39159 z m 0,-1.27 q 0.46566,0 0.81491,-0.22225 0.35983,-0.22225 0.56091,-0.61383 0.21167,-0.40217 0.21167,-0.89958 0,-0.508 -0.21167,-0.889 -0.20108,-0.39158 -0.56091,-0.61383 -0.34925,-0.23283 -0.81491,-0.23283 -0.47625,0 -0.83608,0.23283 -0.35984,0.22225 -0.5715,0.61383 -0.20109,0.381 -0.20109,0.889 0,0.49741 0.20109,0.89958 0.21166,0.39158 0.5715,0.61383 0.35983,0.22225 0.83608,0.22225 z"
           style="font-weight:bold;font-size:10.5833px;line-height:1.25;font-family:'Plus Jakarta Sans';-inkscape-font-specification:'Plus Jakarta Sans';fill:#f87810;stroke-width:0.264583"
           id="path21256" />
        <path
           d="m 115.30503,148.73386 v -5.75732 h 1.38641 v 5.75732 z m 0,-6.4029 v -1.48166 h 1.38641 v 1.48166 z"
           style="font-weight:bold;font-size:10.5833px;line-height:1.25;font-family:'Plus Jakarta Sans';-inkscape-font-specification:'Plus Jakarta Sans';fill:#f87810;stroke-width:0.264583"
           id="path21258" />
        <path
           d="m 117.97152,148.73386 v -5.75732 h 1.30175 v 1.13241 l -0.10583,-0.20108 q 0.20108,-0.51858 0.65616,-0.78316 0.46567,-0.27517 1.0795,-0.27517 0.635,0 1.12183,0.27517 0.49741,0.27516 0.77258,0.77258 0.27516,0.48683 0.27516,1.13241 v 3.70416 h -1.38641 v -3.37608 q 0,-0.381 -0.14816,-0.65616 -0.14817,-0.27517 -0.41275,-0.42333 -0.254,-0.15875 -0.60325,-0.15875 -0.33867,0 -0.60325,0.15875 -0.26458,0.14816 -0.41275,0.42333 -0.14816,0.27516 -0.14816,0.65616 v 3.37608 z"
           style="font-weight:bold;font-size:10.5833px;line-height:1.25;font-family:'Plus Jakarta Sans';-inkscape-font-specification:'Plus Jakarta Sans';fill:#f87810;stroke-width:0.264583"
           id="path21260" />
        <path
           d="m 126.88002,148.79736 q -0.97367,0 -1.51342,-0.52917 -0.52916,-0.53975 -0.52916,-1.51341 v -2.53999 h -0.99483 v -1.23825 h 0.10583 q 0.42333,0 0.65617,-0.22225 0.23283,-0.22225 0.23283,-0.64558 v -0.4445 h 1.38641 v 1.31233 h 1.32291 v 1.23825 h -1.32291 v 2.46591 q 0,0.28575 0.0953,0.48683 0.10583,0.20108 0.3175,0.30691 0.22225,0.10584 0.56091,0.10584 0.0741,0 0.16934,-0.0106 0.10583,-0.0106 0.20108,-0.0212 v 1.18533 q -0.14817,0.0212 -0.33867,0.0423 -0.1905,0.0212 -0.34924,0.0212 z"
           style="font-weight:bold;font-size:10.5833px;line-height:1.25;font-family:'Plus Jakarta Sans';-inkscape-font-specification:'Plus Jakarta Sans';fill:#f87810;stroke-width:0.264583"
           id="path21262" />
        <path
           d="m 131.14062,148.86086 q -0.889,0 -1.55574,-0.40217 -0.66675,-0.40216 -1.03717,-1.09008 -0.37041,-0.68791 -0.37041,-1.52399 0,-0.86784 0.37041,-1.53458 0.381,-0.67733 1.02658,-1.06892 0.65617,-0.39158 1.4605,-0.39158 0.67733,0 1.18533,0.22225 0.51858,0.22225 0.87841,0.61383 0.35983,0.39158 0.55033,0.89958 0.1905,0.49742 0.1905,1.0795 0,0.14817 -0.0212,0.30691 -0.0106,0.15875 -0.0529,0.27517 h -4.44499 v -1.05833 h 3.66183 l -0.65617,0.49742 q 0.0952,-0.48684 -0.0529,-0.86783 -0.13758,-0.381 -0.46566,-0.60325 -0.3175,-0.22225 -0.77258,-0.22225 -0.43392,0 -0.77258,0.22225 -0.33867,0.21166 -0.51858,0.635 -0.16934,0.41274 -0.127,1.00541 -0.0423,0.52916 0.13758,0.94191 0.1905,0.40217 0.55033,0.62442 0.37042,0.22225 0.84667,0.22225 0.47624,0 0.80433,-0.20109 0.33866,-0.20108 0.52916,-0.53974 l 1.12183,0.55033 q -0.16933,0.41275 -0.52916,0.73024 -0.35984,0.3175 -0.85725,0.49742 -0.48683,0.17992 -1.0795,0.17992 z"
           style="font-weight:bold;font-size:10.5833px;line-height:1.25;font-family:'Plus Jakarta Sans';-inkscape-font-specification:'Plus Jakarta Sans';fill:#f87810;stroke-width:0.264583"
           id="path21264" />
        <path
           d="m 134.87999,148.73386 v -5.75732 h 1.30175 v 1.28058 l -0.10583,-0.1905 q 0.20108,-0.64558 0.62441,-0.89958 0.43392,-0.254 1.03717,-0.254 h 0.33866 v 1.22766 h -0.49741 q -0.59267,0 -0.9525,0.37042 -0.35983,0.35983 -0.35983,1.016 v 3.20674 z"
           style="font-weight:bold;font-size:10.5833px;line-height:1.25;font-family:'Plus Jakarta Sans';-inkscape-font-specification:'Plus Jakarta Sans';fill:#f87810;stroke-width:0.264583"
           id="path21266" />
      </g>
    </g>
  </g>
</svg>
